<!-- Generated by IcoMoon.io -->
<svg version="1.1" xmlns="http://www.w3.org/2000/svg" width="34" height="32" viewBox="0 0 34 32">
<title>ALARM</title>
<path fill="#95e1d3" d="M32.252 9.97c-1.662-3.878-4.771-6.988-8.648-8.648 1.049-0.826 2.369-1.322 3.807-1.322 3.404 0 6.163 2.759 6.163 6.163 0 1.438-0.496 2.758-1.322 3.807zM32 16.787c0 4.041-1.586 7.704-4.158 10.429l2.129 2.128c0.281 0.282 0.455 0.67 0.455 1.101 0 0.859-0.697 1.556-1.556 1.556-0.43 0-0.819-0.174-1.101-0.456l-2.285-2.285c-2.467 1.723-5.461 2.741-8.698 2.741-3.23 0-6.22-1.014-8.683-2.731l-2.269 2.269c-0.285 0.285-0.679 0.462-1.113 0.462-0.869 0-1.574-0.705-1.574-1.574 0-0.434 0.176-0.829 0.461-1.113l2.111-2.111c-2.563-2.723-4.145-6.381-4.145-10.415 0-8.402 6.811-15.213 15.213-15.213s15.213 6.811 15.213 15.213zM16.787 4.721c-6.663 0-12.066 5.401-12.066 12.066 0 6.663 5.402 12.066 12.066 12.066s12.066-5.402 12.066-12.066c0-6.664-5.402-12.066-12.066-12.066zM23.082 18.361h-6.295c-0.869 0-1.574-0.705-1.574-1.574v-8.393c0-0.869 0.705-1.574 1.574-1.574s1.574 0.705 1.574 1.574v6.819h4.721c0.869 0 1.574 0.705 1.574 1.575 0 0.869-0.705 1.574-1.574 1.574zM1.35 10.182c-0.844-1.070-1.35-2.418-1.35-3.887 0-3.477 2.818-6.295 6.295-6.295 1.469 0 2.817 0.507 3.888 1.35-3.961 1.697-7.137 4.872-8.833 8.832z"></path>
</svg>
