<!-- Generated by IcoMoon.io -->
<svg version="1.1" xmlns="http://www.w3.org/2000/svg" width="56" height="32" viewBox="0 0 56 32">
<title>ARROW-_-UP</title>
<path fill="#ccc" d="M7.035 30.597l20.957-20.955 21.232 21.232c0.72 0.691 1.699 1.12 2.776 1.12 2.208 0 4-1.792 4-4.003 0-1.077-0.427-2.056-1.123-2.776h0.003l-24.003-24c-0.725-0.752-1.747-1.221-2.877-1.221-0.003 0-0.005 0-0.008 0s-0.008 0-0.011 0c-1.131 0-2.149 0.469-2.877 1.221v0l-23.992 24.011c-0.688 0.72-1.112 1.693-1.112 2.765 0 2.211 1.792 4.003 4 4.003 1.213 0 2.299-0.544 3.035-1.397z"></path>
</svg>
