<!-- Generated by IcoMoon.io -->
<svg version="1.1" xmlns="http://www.w3.org/2000/svg" width="56" height="32" viewBox="0 0 56 32">
<title>ARROW-_-DOWN</title>
<path fill="#ccc" d="M7.035 1.387l20.957 20.96 21.232-21.229c0.72-0.696 1.699-1.12 2.776-1.12 2.208 0 4 1.787 4 3.997 0 1.077-0.427 2.056-1.123 2.776l0.003 0.003-24.003 23.997c-0.725 0.755-1.747 1.224-2.877 1.224-0.003 0-0.005 0-0.008 0s-0.008 0-0.011 0c-1.131 0-2.149-0.469-2.877-1.224v0l-24.003-23.997 0.011-0.013c-0.688-0.72-1.112-1.691-1.112-2.765 0-2.211 1.792-3.997 4-3.997 1.213 0 2.299 0.539 3.035 1.389z"></path>
</svg>
