<!-- Generated by IcoMoon.io -->
<svg version="1.1" xmlns="http://www.w3.org/2000/svg" width="35" height="32" viewBox="0 0 35 32">
<title>COMPUTER-_-OK</title>
<path fill="#95e1d3" d="M33.714 26.286h-10.857v2.857l2.286 2.286v0.571h-14.857v-0.571l2.286-2.286v-2.857h-10.857c-0.946 0-1.714-0.768-1.714-1.715v-22.856c0-0.947 0.768-1.714 1.714-1.714h32c0.946 0 1.714 0.767 1.714 1.714v22.856c0 0.947-0.768 1.715-1.714 1.715zM33.143 2.286h-30.857v19.429h30.857v-19.429zM14.286 10.286c0.473 0 0.902 0.192 1.213 0.502v0l1.073 1.073 3.359-3.359c0.311-0.31 0.739-0.502 1.213-0.502 0.946 0 1.714 0.767 1.714 1.714 0 0.473-0.192 0.902-0.502 1.213v0l-4.571 4.571c-0.311 0.31-0.739 0.502-1.213 0.502s-0.902-0.192-1.213-0.502v0l-2.286-2.287c-0.31-0.31-0.502-0.738-0.502-1.211 0-0.946 0.768-1.714 1.714-1.714z"></path>
</svg>
