<!-- Generated by IcoMoon.io -->
<svg version="1.1" xmlns="http://www.w3.org/2000/svg" width="32" height="32" viewBox="0 0 32 32">
<title>dribbble</title>
<path fill="#95e1d3" d="M31.674 12.808c-0.208-1.026-0.524-2.040-0.932-3.008-0.4-0.95-0.898-1.862-1.476-2.718-0.572-0.846-1.228-1.642-1.952-2.366s-1.52-1.38-2.368-1.954c-0.854-0.578-1.77-1.074-2.718-1.474-0.966-0.408-1.978-0.724-3.006-0.934-1.054-0.216-2.138-0.324-3.222-0.324s-2.168 0.108-3.222 0.324c-1.028 0.21-2.040 0.526-3.008 0.934-0.948 0.4-1.862 0.896-2.718 1.474-0.846 0.574-1.644 1.23-2.366 1.954-0.724 0.724-1.38 1.52-1.952 2.366-0.578 0.856-1.076 1.768-1.476 2.718-0.41 0.968-0.724 1.982-0.934 3.008-0.216 1.052-0.324 2.138-0.324 3.22 0 1.086 0.108 2.172 0.324 3.224 0.21 1.028 0.524 2.040 0.934 3.006 0.4 0.95 0.898 1.866 1.476 2.72 0.572 0.848 1.228 1.642 1.952 2.366 0.722 0.724 1.52 1.38 2.366 1.952 0.856 0.578 1.77 1.076 2.718 1.476 0.968 0.41 1.98 0.722 3.008 0.932 1.054 0.218 2.138 0.328 3.222 0.328s2.168-0.11 3.222-0.328c1.028-0.21 2.040-0.522 3.006-0.932 0.948-0.4 1.864-0.898 2.718-1.476 0.848-0.572 1.644-1.228 2.368-1.952s1.38-1.518 1.952-2.366c0.578-0.854 1.076-1.77 1.476-2.72 0.408-0.966 0.724-1.978 0.932-3.006 0.218-1.052 0.326-2.138 0.326-3.224 0-1.082-0.108-2.168-0.326-3.22zM29.66 15.894c-0.198-0.044-4.822-1.038-9.518-0.448-0.096-0.234-0.192-0.468-0.294-0.706-0.284-0.668-0.59-1.33-0.908-1.982 5.396-2.202 7.588-5.372 7.614-5.408 1.916 2.326 3.074 5.302 3.106 8.544zM25.026 5.776c-0.034 0.052-1.98 3.014-7.138 4.946-2.336-4.292-4.902-7.702-5.108-7.972 1.032-0.25 2.11-0.386 3.22-0.386 3.46 0 6.618 1.29 9.026 3.412zM12.728 2.762c-0.002 0-0.004 0.002-0.004 0.002s-0.014 0.004-0.040 0.010c0.014-0.006 0.028-0.008 0.044-0.012zM10.17 3.672c0.182 0.242 2.708 3.67 5.074 7.872-6.562 1.744-12.256 1.676-12.616 1.668 0.888-4.232 3.73-7.74 7.542-9.54zM2.336 16.028c0-0.144 0.006-0.288 0.010-0.432 0.242 0.006 6.994 0.16 14.030-1.944 0.392 0.764 0.766 1.544 1.108 2.32-0.18 0.052-0.36 0.106-0.538 0.164-7.374 2.384-11.114 9.020-11.114 9.020s0.004 0.002 0.004 0.006c-2.176-2.422-3.5-5.622-3.5-9.134zM16 29.694c-3.308 0-6.34-1.174-8.704-3.132 0.18 0.146 0.306 0.24 0.306 0.24s2.62-5.714 10.724-8.536c0.030-0.010 0.060-0.020 0.090-0.028 1.922 4.996 2.716 9.18 2.918 10.376-1.638 0.696-3.442 1.080-5.334 1.080zM23.636 27.364c-0.14-0.826-0.868-4.836-2.66-9.76 4.412-0.706 8.234 0.502 8.516 0.596-0.608 3.806-2.788 7.092-5.856 9.164z"></path>
</svg>
