<!-- Generated by IcoMoon.io -->
<svg version="1.1" xmlns="http://www.w3.org/2000/svg" width="28" height="32" viewBox="0 0 28 32">
<title>EQUALIZER</title>
<path fill="#95e1d3" d="M26.5 16.497h-3c-0.828 0-1.5-0.67-1.5-1.499v-6c0-0.828 0.672-1.499 1.5-1.499h3c0.828 0 1.5 0.671 1.5 1.499v6c0 0.829-0.672 1.499-1.5 1.499zM23.5 1.497c0-0.828 0.672-1.499 1.5-1.499s1.5 0.671 1.5 1.499v4.501h-3v-4.501zM15.5 24.497h-3c-0.828 0-1.5-0.67-1.5-1.499v-6c0-0.828 0.672-1.5 1.5-1.5h3c0.828 0 1.5 0.672 1.5 1.5v6c0 0.829-0.672 1.499-1.5 1.499zM12.5 1.497c0-0.828 0.672-1.499 1.5-1.499s1.5 0.671 1.5 1.499v12.501h-3v-12.501zM4.5 20.498h-3c-0.828 0-1.5-0.672-1.5-1.501v-6c0-0.828 0.672-1.499 1.5-1.499h3c0.828 0 1.5 0.671 1.5 1.499v6c0 0.829-0.672 1.501-1.5 1.501zM1.5 1.497c0-0.828 0.672-1.499 1.5-1.499s1.5 0.671 1.5 1.499v8.502h-3v-8.502zM4.5 30.497c0 0.829-0.672 1.501-1.5 1.501s-1.5-0.672-1.5-1.501v-8.499h3v8.499zM15.5 30.497c0 0.829-0.672 1.501-1.5 1.501s-1.5-0.672-1.5-1.501v-4.5h3v4.5zM26.5 30.497c0 0.829-0.672 1.501-1.5 1.501s-1.5-0.672-1.5-1.501v-12.498h3v12.498z"></path>
</svg>
