<!-- Generated by IcoMoon.io -->
<svg version="1.1" xmlns="http://www.w3.org/2000/svg" width="15" height="32" viewBox="0 0 15 32">
<title>facebook</title>
<path fill="#fff" d="M14.982 0.011c0 1.844 0 5.147 0 5.147s-3.793-0.378-4.744 1.075c-0.52 0.794-0.211 3.123-0.257 4.794 1.656 0 3.376 0 5.032 0-0.425 1.953-0.729 3.277-1.043 4.969-1.433 0-4.017 0-4.017 0v15.992c0 0-4.743 0-6.972 0 0.001-4.93-0.001-10.682 0-15.93-1.083 0-1.884 0-2.966 0 0-1.842 0-3.186 0-5.031 1.050 0 1.882 0 2.934 0 0.15-3.68 0.206-7.324 2.035-9.18 2.053-2.087 4.013-1.836 9.998-1.836z"></path>
</svg>
