<!-- Generated by IcoMoon.io -->
<svg version="1.1" xmlns="http://www.w3.org/2000/svg" width="37" height="32" viewBox="0 0 37 32">
<title>google-plus</title>
<path fill="#95e1d3" d="M31.35 8.051v5.666h-2.322v-5.666h-5.805v-2.318h5.806v-5.666h2.322v5.666h5.805v2.318h-5.806zM15.292 2.313c2.062 1.14 3.27 2.991 3.27 5.413 0 2.034-1.256 3.637-2.877 4.881-1.581 1.212-1.881 1.723-1.881 2.754 0 0.878 1.693 2.378 2.58 2.993 2.587 1.797 3.353 3.467 3.353 6.254 0 3.476-3.353 7.359-9.558 7.359-5.443 0-10.178-2.603-10.178-6.080 0-3.53 4.333-6.936 9.774-6.936 0.595 0 1.138-0.023 1.7-0.023-0.745-0.713-1.333-1.598-1.333-2.673 0-0.639 0.207-1.277 0.495-1.823-0.295 0.021-0.597-0.028-0.908-0.028-4.468 0-7.464-3.23-7.464-7.099 0-3.788 4.136-7.275 8.529-7.275 2.45 0 9.8 0 9.8 0l-2.195 2.283h-3.107zM10.812 19.853c-3.762-0.039-7.131 2.253-7.131 5.007 0 2.808 2.717 4.863 6.477 4.863 5.288 0 7.131-1.911 7.131-4.719 0-0.339-0.042-0.671-0.121-0.994-0.413-1.591-1.876-2.378-3.92-3.771-0.741-0.237-1.558-0.374-2.436-0.386zM15.039 7.77c-0.439-3.256-2.947-5.871-5.471-5.943-2.524-0.074-4.217 2.417-3.781 5.673 0.437 3.258 2.835 5.959 5.36 6.031 2.524 0.074 4.326-2.506 3.892-5.761z"></path>
</svg>
