<!-- Generated by IcoMoon.io -->
<svg version="1.1" xmlns="http://www.w3.org/2000/svg" width="34" height="32" viewBox="0 0 34 32">
<title>HOME</title>
<path fill="#95e1d3" d="M33.574 16.787c0 0.869-0.705 1.574-1.574 1.574-0.414 0-0.789-0.164-1.070-0.426l-0.003 0.004-14.14-14.139-14.108 14.107c-0.284 0.28-0.675 0.453-1.105 0.453-0.869 0-1.574-0.705-1.574-1.574 0-0.446 0.186-0.848 0.484-1.134l15.169-15.17c0.286-0.297 0.688-0.483 1.134-0.483v0 0c0 0 0 0 0.001 0 0.027 0 0.055 0 0.083 0.002 0.004 0 0.008 0.001 0.013 0.001 0.024 0.001 0.047 0.003 0.071 0.006 0.001 0 0.002 0 0.004 0 0.385 0.042 0.728 0.222 0.979 0.491l0.001-0.001 6.192 6.192v-1.446c0-0.87 0.704-1.574 1.574-1.574 0.869 0 1.574 0.704 1.574 1.574v4.593l5.873 5.873-0.004 0.004c0.262 0.281 0.426 0.656 0.426 1.070zM30.426 19.41v11.016c0 0.869-0.705 1.574-1.574 1.574h-3.148v-12.59h-6.295v12.59h-14.689c-0.869 0-1.574-0.705-1.574-1.574v-11.016l13.639-13.639 13.639 13.639zM14.164 19.41h-6.295v6.295h6.295v-6.295z"></path>
</svg>
