<!-- Generated by IcoMoon.io -->
<svg version="1.1" xmlns="http://www.w3.org/2000/svg" width="32" height="32" viewBox="0 0 32 32">
<title>instagram</title>
<path fill="#f38181" d="M27.962 31.988h-23.981c-2.207 0-3.997-1.79-3.997-3.997v-23.981c0-2.208 1.79-3.997 3.997-3.997h23.981c2.207 0 3.997 1.789 3.997 3.997v23.981c0 2.207-1.79 3.997-3.997 3.997zM15.971 9.804c-2.493 0-4.635 1.476-5.618 3.597h-0.006c-0.010 0.022-0.018 0.046-0.027 0.069-0.059 0.131-0.11 0.266-0.16 0.402-0.024 0.065-0.050 0.129-0.071 0.194-0.046 0.14-0.084 0.281-0.119 0.425-0.018 0.067-0.037 0.132-0.052 0.2-0.032 0.151-0.055 0.305-0.076 0.46-0.009 0.062-0.021 0.124-0.029 0.187-0.022 0.217-0.036 0.438-0.036 0.663 0 3.421 2.774 6.194 6.195 6.194s6.195-2.773 6.195-6.194c0-0.225-0.014-0.446-0.036-0.663-0.008-0.064-0.020-0.125-0.029-0.187-0.021-0.155-0.044-0.309-0.076-0.46-0.015-0.067-0.035-0.132-0.052-0.2-0.035-0.144-0.072-0.285-0.119-0.425-0.021-0.065-0.047-0.129-0.071-0.194-0.050-0.136-0.101-0.271-0.16-0.402-0.010-0.022-0.017-0.046-0.027-0.069h-0.006c-0.983-2.121-3.125-3.597-5.618-3.597zM28.362 5.207c0-0.883-0.716-1.598-1.599-1.598h-3.197c-0.883 0-1.599 0.714-1.599 1.598v3.199c0 0.883 0.716 1.599 1.599 1.599h3.197c0.883 0 1.599-0.716 1.599-1.599v-3.199zM28.362 13.401h-2.948c0.227 0.828 0.35 1.7 0.35 2.599 0 5.408-4.384 9.791-9.792 9.791s-9.792-4.383-9.792-9.791c0-0.899 0.122-1.771 0.35-2.599h-2.948v13.39c0 0.884 0.716 1.6 1.599 1.6h21.583c0.883 0 1.599-0.716 1.599-1.6v-13.39z"></path>
</svg>
