<!-- Generated by IcoMoon.io -->
<svg version="1.1" xmlns="http://www.w3.org/2000/svg" width="32" height="32" viewBox="0 0 32 32">
<title>MAGNIFYING-GLASS</title>
<path fill="#fff" d="M31.096 26.862c0.541 0.543 0.877 1.291 0.877 2.119 0 1.656-1.342 2.996-2.996 2.996-0.828 0-1.576-0.336-2.119-0.877v0l-8.78-8.78c-1.783 1.055-3.856 1.669-6.077 1.669-6.618 0-11.983-5.363-11.983-11.983 0-6.618 5.365-11.983 11.983-11.983s11.983 5.365 11.983 11.983c0 2.222-0.616 4.294-1.669 6.079l8.78 8.778zM12.001 3.018c-4.964 0-8.987 4.023-8.987 8.987s4.023 8.987 8.987 8.987c4.964 0 8.987-4.023 8.987-8.987s-4.023-8.987-8.987-8.987z"></path>
</svg>
