<!-- Generated by IcoMoon.io -->
<svg version="1.1" xmlns="http://www.w3.org/2000/svg" width="32" height="32" viewBox="0 0 32 32">
<title>PICTURE</title>
<path fill="#95e1d3" d="M32 25.599c0 0.694-0.447 1.28-1.067 1.501v1.795c0.62 0.221 1.067 0.807 1.067 1.503 0 0.883-0.717 1.601-1.6 1.601-0.695 0-1.282-0.448-1.502-1.068h-1.796c-0.221 0.62-0.806 1.068-1.502 1.068s-1.282-0.448-1.502-1.068h-1.796c-0.221 0.62-0.806 1.068-1.502 1.068s-1.281-0.448-1.502-1.068h-1.796c-0.221 0.62-0.806 1.068-1.502 1.068s-1.282-0.448-1.502-1.068h-1.796c-0.22 0.62-0.806 1.068-1.502 1.068s-1.282-0.448-1.502-1.068h-1.796c-0.22 0.62-0.806 1.068-1.502 1.068s-1.282-0.448-1.502-1.068h-1.796c-0.221 0.62-0.806 1.068-1.502 1.068-0.883 0-1.6-0.718-1.6-1.601 0-0.695 0.447-1.282 1.067-1.503v-1.795c-0.62-0.221-1.067-0.806-1.067-1.501 0-0.698 0.447-1.282 1.067-1.503v-1.795c-0.62-0.222-1.067-0.807-1.067-1.503 0-0.694 0.447-1.281 1.067-1.502v-1.796c-0.62-0.22-1.067-0.805-1.067-1.501s0.447-1.282 1.067-1.504v-1.795c-0.62-0.22-1.067-0.805-1.067-1.502 0-0.695 0.447-1.282 1.067-1.501v-1.797c-0.62-0.221-1.067-0.806-1.067-1.502s0.447-1.282 1.067-1.502v-1.797c-0.62-0.219-1.067-0.805-1.067-1.501 0-0.884 0.717-1.599 1.6-1.599 0.695 0 1.281 0.445 1.502 1.067h1.796c0.22-0.622 0.806-1.067 1.502-1.067s1.282 0.445 1.502 1.067h1.796c0.22-0.622 0.806-1.067 1.502-1.067s1.282 0.445 1.502 1.067h1.796c0.22-0.622 0.806-1.067 1.502-1.067s1.281 0.445 1.502 1.067h1.796c0.221-0.622 0.806-1.067 1.502-1.067s1.281 0.445 1.502 1.067h1.796c0.22-0.622 0.806-1.067 1.502-1.067s1.281 0.445 1.502 1.067h1.796c0.22-0.622 0.806-1.067 1.502-1.067 0.883 0 1.6 0.715 1.6 1.599 0 0.695-0.447 1.282-1.067 1.501v1.797c0.62 0.22 1.067 0.806 1.067 1.502s-0.447 1.281-1.067 1.502v1.797c0.62 0.219 1.067 0.805 1.067 1.501 0 0.697-0.447 1.282-1.067 1.502v1.795c0.62 0.222 1.067 0.809 1.067 1.504s-0.447 1.281-1.067 1.501v1.796c0.62 0.221 1.067 0.807 1.067 1.502 0 0.695-0.447 1.281-1.067 1.503v1.795c0.62 0.221 1.067 0.805 1.067 1.503zM27.733 4.263h-23.467v23.468h23.467v-23.468zM13.867 21.331l7.467-9.066 4.8 7.467v6.399h-20.267l6.4-6.399 1.6 1.599zM10.667 13.865c-1.767 0-3.2-1.433-3.2-3.201 0-1.767 1.433-3.199 3.2-3.199s3.2 1.431 3.2 3.199c0 1.769-1.433 3.201-3.2 3.201z"></path>
</svg>
