<!-- Generated by IcoMoon.io -->
<svg version="1.1" xmlns="http://www.w3.org/2000/svg" width="24" height="32" viewBox="0 0 24 32">
<title>PIN-2</title>
<path fill="#f38181" d="M11.983 31.988c0 0-11.991-13.363-11.991-19.984s5.368-11.991 11.991-11.991c6.622 0 11.991 5.37 11.991 11.991s-11.991 19.984-11.991 19.984zM11.983 4.009c-4.414 0-7.994 3.578-7.994 7.994 0 4.414 3.58 7.994 7.994 7.994s7.994-3.58 7.994-7.994c0-4.415-3.58-7.994-7.994-7.994zM11.983 16c-2.207 0-3.997-1.79-3.997-3.997 0-2.208 1.79-3.997 3.997-3.997s3.997 1.789 3.997 3.997c0 2.207-1.79 3.997-3.997 3.997z"></path>
</svg>
