<!-- Generated by IcoMoon.io -->
<svg version="1.1" xmlns="http://www.w3.org/2000/svg" width="24" height="32" viewBox="0 0 24 32">
<title>pinterest</title>
<path fill="#f38181" d="M10.173 20.776c-0.261 1.040-0.525 2.131-0.797 3.198-0.269 1.052-0.506 2.118-0.897 3.085-0.648 1.6-1.471 3.146-2.552 4.398-0.718 0.833-0.566 0.501-0.782 0.456-0.165-0.034-0.179-0.196-0.211-0.431-0.176-1.271-0.056-2.742 0.009-4.171 0.075-1.629 0.417-2.983 0.736-4.335 0.605-2.577 1.182-5.105 1.792-7.699 0.040-0.172 0.15-0.457 0.112-0.556-0.277-0.721-0.457-1.368-0.536-2.123-0.091-0.869-0.021-1.68 0.174-2.428 0.346-1.321 1.14-2.492 2.366-2.92 0.779-0.27 1.642-0.147 2.167 0.165 0.54 0.324 0.911 0.833 1.083 1.556 0.185 0.768 0.049 1.687-0.1 2.362-0.334 1.523-0.772 2.665-1.17 4.134-0.197 0.728-0.421 1.476-0.236 2.263 0.17 0.722 0.546 1.219 1.058 1.593 0.532 0.387 1.162 0.598 2.030 0.568 1.534-0.054 2.599-1.034 3.311-1.958 1.14-1.48 1.83-3.477 2.092-5.853 0.084-0.767 0.146-1.647 0.087-2.516-0.11-1.604-0.611-2.894-1.408-3.893-0.757-0.952-1.831-1.71-3.138-2.137-1.295-0.422-3.088-0.563-4.68-0.291-2.895 0.496-4.936 2.141-6.139 4.413-0.63 1.189-1.045 2.557-1.045 4.259 0 1.313 0.324 2.329 0.847 3.123 0.166 0.251 0.41 0.458 0.572 0.746 0.231 0.407-0.035 1.013-0.149 1.454-0.137 0.531-0.152 1.264-0.772 1.276-0.257 0.005-0.58-0.182-0.797-0.303-1.63-0.901-2.619-2.539-3.025-4.664-0.247-1.292-0.246-2.797 0-4.044 0.237-1.208 0.679-2.321 1.17-3.224 1.017-1.877 2.507-3.379 4.32-4.45 1.394-0.824 2.966-1.403 4.88-1.681 0.634-0.092 1.292-0.131 2.005-0.164 2.083-0.099 3.977 0.373 5.403 1.010 1.505 0.673 2.707 1.569 3.722 2.68 1.047 1.143 1.809 2.472 2.291 4.133 0.252 0.864 0.497 1.789 0.497 2.857 0 1.072-0.226 2.015-0.385 2.958-0.592 3.532-2.272 6.421-4.794 8.066-0.611 0.398-1.35 0.766-2.191 1.010-0.833 0.242-1.784 0.425-2.802 0.353-0.988-0.067-1.797-0.336-2.477-0.721-0.674-0.381-1.242-0.848-1.644-1.554z"></path>
</svg>
