<!-- Generated by IcoMoon.io -->
<svg version="1.1" xmlns="http://www.w3.org/2000/svg" width="40" height="32" viewBox="0 0 40 32">
<title>SHOPPING-CART</title>
<path fill="#fff" d="M39.994 7.070l0.002 0.002-5.645 12.544c-0.278 0.618-0.88 1.058-1.59 1.104v0l-16.257 1.083 0.94 2.684h17.7c2.078 0 3.763 1.685 3.763 3.763 0 2.080-1.685 3.763-3.763 3.763s-3.763-1.683-3.763-3.763h-17.561c0 2.080-1.685 3.763-3.763 3.763s-3.763-1.683-3.763-3.763c0-2.078 1.685-3.763 3.763-3.763h3.4l-7.243-20.697h-4.31c-1.040 0-1.882-0.842-1.882-1.882 0-1.038 0.842-1.882 1.882-1.882h5.645c0.821 0 1.512 0.529 1.77 1.264l0.007-0.002 1.095 3.129h27.861c1.040 0 1.882 0.842 1.882 1.882 0 0.276-0.062 0.536-0.169 0.771zM11.739 8.181l3.478 9.937 16.168-1.076 3.987-8.86h-23.632z"></path>
</svg>
