<!-- Generated by IcoMoon.io -->
<svg version="1.1" xmlns="http://www.w3.org/2000/svg" width="33" height="32" viewBox="0 0 33 32">
<title>SPEECH-4</title>
<path fill="#95e1d3" d="M31.475 18.884h-1.049v2.623c0 0.108-0.011 0.215-0.032 0.317-0.015 0.071-0.040 0.138-0.064 0.206-0.011 0.030-0.016 0.061-0.028 0.089-0.025 0.060-0.060 0.115-0.092 0.172-0.018 0.031-0.032 0.066-0.052 0.097-0.051 0.076-0.111 0.146-0.175 0.211-0.006 0.007-0.011 0.015-0.017 0.021-0.28 0.281-0.667 0.454-1.093 0.46-0.006 0-0.013 0.001-0.019 0.001v0 0c-0.434 0-0.828-0.175-1.113-0.461l-3.736-3.736h-14.561c-0.869 0-1.574-0.705-1.574-1.574v-15.738c0-0.869 0.705-1.574 1.574-1.574h22.033c0.869 0 1.574 0.705 1.574 1.574v15.738c0 0.869-0.705 1.574-1.574 1.574zM23.352 20.458l3.319 3.319 0.004-0.004c0.566 0.544 1.331 0.882 2.178 0.882v1.049c0 0.869-0.705 1.573-1.574 1.573v0h-16.659l-4.261 4.261c-0.285 0.284-0.678 0.461-1.113 0.461v0 0c-0.007 0-0.013-0.002-0.019-0.002-0.427-0.006-0.813-0.179-1.093-0.459-0.007-0.007-0.011-0.015-0.017-0.021-0.064-0.066-0.124-0.136-0.175-0.212-0.020-0.030-0.034-0.064-0.052-0.096-0.033-0.057-0.068-0.111-0.093-0.171-0.012-0.028-0.017-0.060-0.028-0.089-0.024-0.068-0.049-0.134-0.064-0.207-0.021-0.102-0.032-0.208-0.032-0.317v0-3.147h-2.1c-0.868-0.002-1.572-0.705-1.572-1.573v-17.836c0-0.001 0-0.001 0-0.001 0-0.87 0.705-1.574 1.574-1.574h4.721v11.016c0 1.738 1.409 3.148 3.148 3.148h13.91z"></path>
</svg>
