<!-- Generated by IcoMoon.io -->
<svg version="1.1" xmlns="http://www.w3.org/2000/svg" width="36" height="32" viewBox="0 0 36 32">
<title>SPEECH-BUBBLE-2</title>
<path fill="#95e1d3" d="M18.969 27.459c-1.287 0-2.547-0.371-3.764-0.546-4.92 6.223-12.681 4.997-12.681 4.997 5.482-2.594 5.369-6.892 4.395-7.464-4.303-2.529-6.89-6.378-6.89-10.691 0-7.613 8.369-13.786 18.94-13.786 10.572 0 17.015 6.173 17.015 13.786 0 7.617-6.443 13.705-17.015 13.705zM9.595 10.655c-1.859 0-3.368 1.507-3.368 3.368 0 1.859 1.509 3.368 3.368 3.368 1.862 0 3.368-1.509 3.368-3.368 0-1.862-1.507-3.368-3.368-3.368zM18.017 10.655c-1.859 0-3.368 1.507-3.368 3.368 0 1.859 1.509 3.368 3.368 3.368 1.862 0 3.368-1.509 3.368-3.368 0-1.862-1.507-3.368-3.368-3.368zM26.438 10.655c-1.859 0-3.368 1.507-3.368 3.368 0 1.859 1.509 3.368 3.368 3.368 1.862 0 3.368-1.509 3.368-3.368 0-1.862-1.507-3.368-3.368-3.368z"></path>
</svg>
