<!-- Generated by IcoMoon.io -->
<svg version="1.1" xmlns="http://www.w3.org/2000/svg" width="20" height="32" viewBox="0 0 20 32">
<title>tumblr</title>
<path fill="#95e1d3" d="M19.981 30.233c-1.357 0.641-2.589 1.094-3.691 1.353s-2.292 0.389-3.571 0.389c-1.455 0-2.312-0.184-3.43-0.551-1.116-0.369-2.068-0.898-2.857-1.577-0.791-0.685-1.335-1.413-1.643-2.18-0.303-0.771-0.455-1.884-0.455-3.348v-11.207h-4.32v-4.526c1.25-0.407 2.697-0.992 3.585-1.755 0.894-0.763 1.607-1.675 2.146-2.745 0.539-1.066 0.912-2.421 1.114-4.072h4.522v7.394h7.35v5.703h-7.35v8.195c0 1.855-0.024 2.923 0.172 3.448 0.194 0.523 0.681 1.066 1.212 1.379 0.705 0.423 1.507 0.637 2.413 0.637 1.609 0 3.21-0.527 4.803-1.579v5.041z"></path>
</svg>
