<!-- Generated by IcoMoon.io -->
<svg version="1.1" xmlns="http://www.w3.org/2000/svg" width="39" height="32" viewBox="0 0 39 32">
<title>twitter</title>
<path fill="#f38181" d="M26.811 0.017c3.131-0.055 4.798 1.085 6.389 2.537 1.351-0.117 3.108-0.871 4.142-1.398 0.334-0.182 0.67-0.366 1.005-0.549-0.591 1.596-1.391 2.846-2.623 3.796-0.274 0.209-0.545 0.494-0.888 0.628 0 0.006 0 0.014 0 0.020 1.755-0.017 3.202-0.81 4.576-1.239 0 0.006 0 0.014 0 0.020-0.722 1.147-1.699 2.312-2.741 3.146-0.42 0.334-0.842 0.668-1.262 1.002 0.023 1.858-0.028 3.631-0.374 5.192-2.019 9.074-7.37 15.235-15.837 17.873-3.041 0.947-7.955 1.336-11.439 0.471-1.727-0.428-3.288-0.913-4.752-1.552-0.814-0.357-1.568-0.742-2.289-1.181-0.237-0.145-0.473-0.289-0.71-0.433 0.785 0.023 1.705 0.24 2.583 0.099 0.796-0.129 1.575-0.095 2.309-0.256 1.829-0.402 3.452-0.933 4.85-1.75 0.679-0.399 1.709-0.863 2.19-1.436-0.908 0.017-1.732-0.195-2.406-0.433-2.615-0.924-4.137-2.621-5.129-5.172 0.793 0.088 3.075 0.294 3.609-0.157-0.997-0.055-1.956-0.633-2.643-1.061-2.104-1.318-3.819-3.525-3.806-6.922 0.277 0.131 0.553 0.262 0.828 0.393 0.53 0.223 1.067 0.342 1.696 0.473 0.266 0.055 0.799 0.211 1.105 0.097-0.014 0-0.026 0-0.040 0-0.406-0.473-1.070-0.788-1.479-1.298-1.35-1.676-2.614-4.257-1.815-7.333 0.203-0.78 0.525-1.468 0.868-2.104 0.014 0.006 0.026 0.012 0.040 0.018 0.157 0.329 0.508 0.571 0.73 0.847 0.69 0.854 1.539 1.622 2.406 2.3 2.952 2.31 5.61 3.728 9.88 4.778 1.084 0.268 2.335 0.471 3.629 0.473-0.363-1.057-0.246-2.771 0.038-3.794 0.72-2.577 2.283-4.431 4.576-5.426 0.548-0.239 1.156-0.412 1.795-0.553 0.329-0.038 0.657-0.079 0.987-0.117z"></path>
</svg>
