<!-- Generated by IcoMoon.io -->
<svg version="1.1" xmlns="http://www.w3.org/2000/svg" width="55" height="32" viewBox="0 0 55 32">
<title>VIEW</title>
<path fill="#95e1d3" d="M55.265 16.060c-0.003 0.023-0.003 0.048-0.006 0.068 0 0.011-0.003 0.026-0.003 0.037 0 0.017-0.006 0.034-0.006 0.048-0.003 0.020-0.006 0.040-0.009 0.060 0 0.003 0 0.006 0 0.006-0.068 0.441-0.27 0.848-0.577 1.166-0.58 0.703-1.215 1.363-1.852 2.011-3.447 3.499-7.401 6.619-11.728 8.88-2.768 1.448-5.723 2.614-8.789 3.174-3.371 0.617-6.744 0.586-10.098-0.142-5.803-1.263-11.056-4.395-15.653-8.144-2.133-1.738-4.233-3.641-5.996-5.78-0.774-0.936-0.774-2.045 0-2.981 0.577-0.703 1.212-1.365 1.852-2.014 3.445-3.496 7.398-6.616 11.728-8.88 2.765-1.445 5.72-2.614 8.786-3.174 3.371-0.614 6.744-0.586 10.098 0.145 5.803 1.26 11.056 4.395 15.653 8.141 2.133 1.738 4.233 3.644 5.996 5.783 0.307 0.316 0.509 0.725 0.577 1.163 0 0.003 0 0.006 0.003 0.009 0.003 0.017 0.006 0.040 0.006 0.057 0.003 0.017 0.006 0.034 0.009 0.051 0 0.011 0 0.023 0.003 0.034 0 0.023 0.003 0.048 0.003 0.071 0.003 0.034 0.006 0.068 0.006 0.105 0 0.034-0.003 0.071-0.003 0.105zM27.617 5.154c-5.726 0-10.368 4.642-10.368 10.368s4.642 10.368 10.368 10.368c5.726 0 10.371-4.642 10.371-10.368s-4.645-10.368-10.371-10.368zM27.617 20.705c-2.861 0-5.183-2.318-5.183-5.183s2.321-5.185 5.183-5.185c2.864 0 5.185 2.321 5.185 5.185s-2.321 5.183-5.185 5.183z"></path>
</svg>
