<svg aria-hidden="true" style="position: absolute; width: 0; height: 0; overflow: hidden;" version="1.1" xmlns="http://www.w3.org/2000/svg" xmlns:xlink="http://www.w3.org/1999/xlink">
<defs>
<symbol id="icon-ALARM" viewBox="0 0 34 32">
<path d="M32.252 9.97c-1.662-3.878-4.771-6.988-8.648-8.648 1.049-0.826 2.369-1.322 3.807-1.322 3.404 0 6.163 2.759 6.163 6.163 0 1.438-0.496 2.758-1.322 3.807zM32 16.787c0 4.041-1.586 7.704-4.158 10.429l2.129 2.128c0.281 0.282 0.455 0.67 0.455 1.101 0 0.859-0.697 1.556-1.556 1.556-0.43 0-0.819-0.174-1.101-0.456l-2.285-2.285c-2.467 1.723-5.461 2.741-8.698 2.741-3.23 0-6.22-1.014-8.683-2.731l-2.269 2.269c-0.285 0.285-0.679 0.462-1.113 0.462-0.869 0-1.574-0.705-1.574-1.574 0-0.434 0.176-0.829 0.461-1.113l2.111-2.111c-2.563-2.723-4.145-6.381-4.145-10.415 0-8.402 6.811-15.213 15.213-15.213s15.213 6.811 15.213 15.213zM16.787 4.721c-6.663 0-12.066 5.401-12.066 12.066 0 6.663 5.402 12.066 12.066 12.066s12.066-5.402 12.066-12.066c0-6.664-5.402-12.066-12.066-12.066zM23.082 18.361h-6.295c-0.869 0-1.574-0.705-1.574-1.574v-8.393c0-0.869 0.705-1.574 1.574-1.574s1.574 0.705 1.574 1.574v6.819h4.721c0.869 0 1.574 0.705 1.574 1.575 0 0.869-0.705 1.574-1.574 1.574zM1.35 10.182c-0.844-1.070-1.35-2.418-1.35-3.887 0-3.477 2.818-6.295 6.295-6.295 1.469 0 2.817 0.507 3.888 1.35-3.961 1.697-7.137 4.872-8.833 8.832z"></path>
</symbol>
<symbol id="icon-ARROW-_-DOWN" viewBox="0 0 56 32">
<path d="M7.035 1.387l20.957 20.96 21.232-21.229c0.72-0.696 1.699-1.12 2.776-1.12 2.208 0 4 1.787 4 3.997 0 1.077-0.427 2.056-1.123 2.776l0.003 0.003-24.003 23.997c-0.725 0.755-1.747 1.224-2.877 1.224-0.003 0-0.005 0-0.008 0s-0.008 0-0.011 0c-1.131 0-2.149-0.469-2.877-1.224v0l-24.003-23.997 0.011-0.013c-0.688-0.72-1.112-1.691-1.112-2.765 0-2.211 1.792-3.997 4-3.997 1.213 0 2.299 0.539 3.035 1.389z"></path>
</symbol>
<symbol id="icon-ARROW-_-UP" viewBox="0 0 56 32">
<path d="M7.035 30.597l20.957-20.955 21.232 21.232c0.72 0.691 1.699 1.12 2.776 1.12 2.208 0 4-1.792 4-4.003 0-1.077-0.427-2.056-1.123-2.776h0.003l-24.003-24c-0.725-0.752-1.747-1.221-2.877-1.221-0.003 0-0.005 0-0.008 0s-0.008 0-0.011 0c-1.131 0-2.149 0.469-2.877 1.221v0l-23.992 24.011c-0.688 0.72-1.112 1.693-1.112 2.765 0 2.211 1.792 4.003 4 4.003 1.213 0 2.299-0.544 3.035-1.397z"></path>
</symbol>
<symbol id="icon-BOOK-2" viewBox="0 0 32 32">
<path d="M31.065 25.889l-14.471 5.988c-0.182 0.079-0.383 0.123-0.594 0.123s-0.412-0.044-0.594-0.123l-14.471-5.988c-0.548-0.223-0.935-0.761-0.935-1.389v-23c0-0.829 0.672-1.5 1.5-1.5 0.203 0 0.397 0.041 0.573 0.114h0.001l0.002 0.001c0.004 0.001 0.009 0.004 0.013 0.005l13.911 5.757 13.911-5.757c0.004-0.001 0.009-0.004 0.013-0.005l0.003-0.001c0.176-0.073 0.37-0.114 0.573-0.114 0.828 0 1.5 0.671 1.5 1.5v23c0 0.628-0.387 1.166-0.935 1.389zM14.5 8.503l-11.5-4.759v19.753l11.5 4.759v-19.753zM29 3.744l-11.5 4.759v19.753l11.5-4.759v-19.753zM19.879 10.634l5.5-2.5c0.189-0.086 0.399-0.134 0.621-0.134 0.828 0 1.5 0.671 1.5 1.5 0 0.607-0.361 1.129-0.879 1.365v0l-5.5 2.5c-0.19 0.087-0.4 0.135-0.621 0.135-0.828 0-1.5-0.672-1.5-1.5 0-0.607 0.361-1.13 0.879-1.366zM19.879 16.134v0l5.5-2.5c0.189-0.086 0.399-0.134 0.621-0.134 0.828 0 1.5 0.671 1.5 1.5 0 0.607-0.361 1.129-0.879 1.365l-5.5 2.5c-0.19 0.086-0.4 0.135-0.621 0.135-0.828 0-1.5-0.672-1.5-1.5 0-0.607 0.361-1.129 0.879-1.366zM19.879 21.634v0l5.5-2.5c0.189-0.086 0.399-0.134 0.621-0.134 0.828 0 1.5 0.671 1.5 1.5 0 0.607-0.361 1.129-0.879 1.365v0l-5.5 2.5c-0.19 0.087-0.4 0.135-0.621 0.135-0.828 0-1.5-0.672-1.5-1.5 0-0.607 0.361-1.13 0.879-1.366zM6 8c0.221 0 0.431 0.048 0.621 0.134v0l5.5 2.5c0.518 0.236 0.879 0.759 0.879 1.366 0 0.828-0.672 1.5-1.5 1.5-0.222 0-0.432-0.048-0.621-0.135v0l-5.5-2.5c-0.518-0.236-0.879-0.758-0.879-1.365 0-0.829 0.672-1.5 1.5-1.5zM6 13.5c0.221 0 0.431 0.048 0.621 0.134v0l5.5 2.5c0.518 0.237 0.879 0.759 0.879 1.366 0 0.828-0.672 1.5-1.5 1.5-0.222 0-0.432-0.049-0.621-0.135v0.001l-5.5-2.501c-0.518-0.236-0.879-0.758-0.879-1.365 0-0.829 0.672-1.5 1.5-1.5zM6 19c0.221 0 0.431 0.048 0.621 0.134v0l5.5 2.5c0.518 0.236 0.879 0.759 0.879 1.366 0 0.828-0.672 1.5-1.5 1.5-0.222 0-0.432-0.048-0.621-0.135v0l-5.5-2.5c-0.518-0.236-0.879-0.758-0.879-1.365 0-0.829 0.672-1.5 1.5-1.5z"></path>
</symbol>
<symbol id="icon-BULLSEYE" viewBox="0 0 32 32">
<path d="M16 31.998c-8.836 0-16-7.163-16-16.001 0-8.835 7.164-15.999 16-15.999 8.837 0 16 7.164 16 15.999 0 8.838-7.163 16.001-16 16.001zM16 2.998c-7.18 0-13 5.82-13 12.999 0 7.18 5.82 13.001 13 13.001s13-5.821 13-13.001c0-7.179-5.82-12.999-13-12.999zM16 25.497c-5.247 0-9.5-4.253-9.5-9.5 0-5.245 4.253-9.499 9.5-9.499s9.5 4.254 9.5 9.499c0 5.247-4.253 9.5-9.5 9.5zM16 9.498c-3.59 0-6.5 2.91-6.5 6.499 0 3.59 2.91 6.502 6.5 6.502s6.5-2.912 6.5-6.502c0-3.589-2.91-6.499-6.5-6.499zM16 18.999c-1.657 0-3-1.344-3-3.002 0-1.656 1.343-2.998 3-2.998s3 1.342 3 2.998c0 1.658-1.343 3.002-3 3.002z"></path>
</symbol>
<symbol id="icon-COMPUTER-_-OK" viewBox="0 0 35 32">
<path d="M33.714 26.286h-10.857v2.857l2.286 2.286v0.571h-14.857v-0.571l2.286-2.286v-2.857h-10.857c-0.946 0-1.714-0.768-1.714-1.715v-22.856c0-0.947 0.768-1.714 1.714-1.714h32c0.946 0 1.714 0.767 1.714 1.714v22.856c0 0.947-0.768 1.715-1.714 1.715zM33.143 2.286h-30.857v19.429h30.857v-19.429zM14.286 10.286c0.473 0 0.902 0.192 1.213 0.502v0l1.073 1.073 3.359-3.359c0.311-0.31 0.739-0.502 1.213-0.502 0.946 0 1.714 0.767 1.714 1.714 0 0.473-0.192 0.902-0.502 1.213v0l-4.571 4.571c-0.311 0.31-0.739 0.502-1.213 0.502s-0.902-0.192-1.213-0.502v0l-2.286-2.287c-0.31-0.31-0.502-0.738-0.502-1.211 0-0.946 0.768-1.714 1.714-1.714z"></path>
</symbol>
<symbol id="icon-dribbble" viewBox="0 0 32 32">
<path d="M31.674 12.808c-0.208-1.026-0.524-2.040-0.932-3.008-0.4-0.95-0.898-1.862-1.476-2.718-0.572-0.846-1.228-1.642-1.952-2.366s-1.52-1.38-2.368-1.954c-0.854-0.578-1.77-1.074-2.718-1.474-0.966-0.408-1.978-0.724-3.006-0.934-1.054-0.216-2.138-0.324-3.222-0.324s-2.168 0.108-3.222 0.324c-1.028 0.21-2.040 0.526-3.008 0.934-0.948 0.4-1.862 0.896-2.718 1.474-0.846 0.574-1.644 1.23-2.366 1.954-0.724 0.724-1.38 1.52-1.952 2.366-0.578 0.856-1.076 1.768-1.476 2.718-0.41 0.968-0.724 1.982-0.934 3.008-0.216 1.052-0.324 2.138-0.324 3.22 0 1.086 0.108 2.172 0.324 3.224 0.21 1.028 0.524 2.040 0.934 3.006 0.4 0.95 0.898 1.866 1.476 2.72 0.572 0.848 1.228 1.642 1.952 2.366 0.722 0.724 1.52 1.38 2.366 1.952 0.856 0.578 1.77 1.076 2.718 1.476 0.968 0.41 1.98 0.722 3.008 0.932 1.054 0.218 2.138 0.328 3.222 0.328s2.168-0.11 3.222-0.328c1.028-0.21 2.040-0.522 3.006-0.932 0.948-0.4 1.864-0.898 2.718-1.476 0.848-0.572 1.644-1.228 2.368-1.952s1.38-1.518 1.952-2.366c0.578-0.854 1.076-1.77 1.476-2.72 0.408-0.966 0.724-1.978 0.932-3.006 0.218-1.052 0.326-2.138 0.326-3.224 0-1.082-0.108-2.168-0.326-3.22zM29.66 15.894c-0.198-0.044-4.822-1.038-9.518-0.448-0.096-0.234-0.192-0.468-0.294-0.706-0.284-0.668-0.59-1.33-0.908-1.982 5.396-2.202 7.588-5.372 7.614-5.408 1.916 2.326 3.074 5.302 3.106 8.544zM25.026 5.776c-0.034 0.052-1.98 3.014-7.138 4.946-2.336-4.292-4.902-7.702-5.108-7.972 1.032-0.25 2.11-0.386 3.22-0.386 3.46 0 6.618 1.29 9.026 3.412zM12.728 2.762c-0.002 0-0.004 0.002-0.004 0.002s-0.014 0.004-0.040 0.010c0.014-0.006 0.028-0.008 0.044-0.012zM10.17 3.672c0.182 0.242 2.708 3.67 5.074 7.872-6.562 1.744-12.256 1.676-12.616 1.668 0.888-4.232 3.73-7.74 7.542-9.54zM2.336 16.028c0-0.144 0.006-0.288 0.010-0.432 0.242 0.006 6.994 0.16 14.030-1.944 0.392 0.764 0.766 1.544 1.108 2.32-0.18 0.052-0.36 0.106-0.538 0.164-7.374 2.384-11.114 9.020-11.114 9.020s0.004 0.002 0.004 0.006c-2.176-2.422-3.5-5.622-3.5-9.134zM16 29.694c-3.308 0-6.34-1.174-8.704-3.132 0.18 0.146 0.306 0.24 0.306 0.24s2.62-5.714 10.724-8.536c0.030-0.010 0.060-0.020 0.090-0.028 1.922 4.996 2.716 9.18 2.918 10.376-1.638 0.696-3.442 1.080-5.334 1.080zM23.636 27.364c-0.14-0.826-0.868-4.836-2.66-9.76 4.412-0.706 8.234 0.502 8.516 0.596-0.608 3.806-2.788 7.092-5.856 9.164z"></path>
</symbol>
<symbol id="icon-EQUALIZER" viewBox="0 0 28 32">
<path d="M26.5 16.497h-3c-0.828 0-1.5-0.67-1.5-1.499v-6c0-0.828 0.672-1.499 1.5-1.499h3c0.828 0 1.5 0.671 1.5 1.499v6c0 0.829-0.672 1.499-1.5 1.499zM23.5 1.497c0-0.828 0.672-1.499 1.5-1.499s1.5 0.671 1.5 1.499v4.501h-3v-4.501zM15.5 24.497h-3c-0.828 0-1.5-0.67-1.5-1.499v-6c0-0.828 0.672-1.5 1.5-1.5h3c0.828 0 1.5 0.672 1.5 1.5v6c0 0.829-0.672 1.499-1.5 1.499zM12.5 1.497c0-0.828 0.672-1.499 1.5-1.499s1.5 0.671 1.5 1.499v12.501h-3v-12.501zM4.5 20.498h-3c-0.828 0-1.5-0.672-1.5-1.501v-6c0-0.828 0.672-1.499 1.5-1.499h3c0.828 0 1.5 0.671 1.5 1.499v6c0 0.829-0.672 1.501-1.5 1.501zM1.5 1.497c0-0.828 0.672-1.499 1.5-1.499s1.5 0.671 1.5 1.499v8.502h-3v-8.502zM4.5 30.497c0 0.829-0.672 1.501-1.5 1.501s-1.5-0.672-1.5-1.501v-8.499h3v8.499zM15.5 30.497c0 0.829-0.672 1.501-1.5 1.501s-1.5-0.672-1.5-1.501v-4.5h3v4.5zM26.5 30.497c0 0.829-0.672 1.501-1.5 1.501s-1.5-0.672-1.5-1.501v-12.498h3v12.498z"></path>
</symbol>
<symbol id="icon-facebook" viewBox="0 0 15 32">
<path d="M14.982 0.011c0 1.844 0 5.147 0 5.147s-3.793-0.378-4.744 1.075c-0.52 0.794-0.211 3.123-0.257 4.794 1.656 0 3.376 0 5.032 0-0.425 1.953-0.729 3.277-1.043 4.969-1.433 0-4.017 0-4.017 0v15.992c0 0-4.743 0-6.972 0 0.001-4.93-0.001-10.682 0-15.93-1.083 0-1.884 0-2.966 0 0-1.842 0-3.186 0-5.031 1.050 0 1.882 0 2.934 0 0.15-3.68 0.206-7.324 2.035-9.18 2.053-2.087 4.013-1.836 9.998-1.836z"></path>
</symbol>
<symbol id="icon-google-plus" viewBox="0 0 37 32">
<path d="M31.35 8.051v5.666h-2.322v-5.666h-5.805v-2.318h5.806v-5.666h2.322v5.666h5.805v2.318h-5.806zM15.292 2.313c2.062 1.14 3.27 2.991 3.27 5.413 0 2.034-1.256 3.637-2.877 4.881-1.581 1.212-1.881 1.723-1.881 2.754 0 0.878 1.693 2.378 2.58 2.993 2.587 1.797 3.353 3.467 3.353 6.254 0 3.476-3.353 7.359-9.558 7.359-5.443 0-10.178-2.603-10.178-6.080 0-3.53 4.333-6.936 9.774-6.936 0.595 0 1.138-0.023 1.7-0.023-0.745-0.713-1.333-1.598-1.333-2.673 0-0.639 0.207-1.277 0.495-1.823-0.295 0.021-0.597-0.028-0.908-0.028-4.468 0-7.464-3.23-7.464-7.099 0-3.788 4.136-7.275 8.529-7.275 2.45 0 9.8 0 9.8 0l-2.195 2.283h-3.107zM10.812 19.853c-3.762-0.039-7.131 2.253-7.131 5.007 0 2.808 2.717 4.863 6.477 4.863 5.288 0 7.131-1.911 7.131-4.719 0-0.339-0.042-0.671-0.121-0.994-0.413-1.591-1.876-2.378-3.92-3.771-0.741-0.237-1.558-0.374-2.436-0.386zM15.039 7.77c-0.439-3.256-2.947-5.871-5.471-5.943-2.524-0.074-4.217 2.417-3.781 5.673 0.437 3.258 2.835 5.959 5.36 6.031 2.524 0.074 4.326-2.506 3.892-5.761z"></path>
</symbol>
<symbol id="icon-HOME" viewBox="0 0 34 32">
<path d="M33.574 16.787c0 0.869-0.705 1.574-1.574 1.574-0.414 0-0.789-0.164-1.070-0.426l-0.003 0.004-14.14-14.139-14.108 14.107c-0.284 0.28-0.675 0.453-1.105 0.453-0.869 0-1.574-0.705-1.574-1.574 0-0.446 0.186-0.848 0.484-1.134l15.169-15.17c0.286-0.297 0.688-0.483 1.134-0.483v0 0c0 0 0 0 0.001 0 0.027 0 0.055 0 0.083 0.002 0.004 0 0.008 0.001 0.013 0.001 0.024 0.001 0.047 0.003 0.071 0.006 0.001 0 0.002 0 0.004 0 0.385 0.042 0.728 0.222 0.979 0.491l0.001-0.001 6.192 6.192v-1.446c0-0.87 0.704-1.574 1.574-1.574 0.869 0 1.574 0.704 1.574 1.574v4.593l5.873 5.873-0.004 0.004c0.262 0.281 0.426 0.656 0.426 1.070zM30.426 19.41v11.016c0 0.869-0.705 1.574-1.574 1.574h-3.148v-12.59h-6.295v12.59h-14.689c-0.869 0-1.574-0.705-1.574-1.574v-11.016l13.639-13.639 13.639 13.639zM14.164 19.41h-6.295v6.295h6.295v-6.295z"></path>
</symbol>
<symbol id="icon-IMAGE" viewBox="0 0 32 32">
<path d="M30.5 32h-29c-0.829 0-1.5-0.672-1.5-1.5v-29c0-0.829 0.671-1.5 1.5-1.5h29c0.828 0 1.5 0.671 1.5 1.5v29c0 0.828-0.672 1.5-1.5 1.5zM29 3h-26v26h26v-26zM6.5 4.5h5.5c0.828 0 1.5 0.671 1.5 1.5s-0.672 1.5-1.5 1.5v0h-4.5v4.5c0 0.828-0.672 1.5-1.5 1.5s-1.5-0.672-1.5-1.5v0-7.5h2zM4.5 20v0c0-0.829 0.672-1.5 1.5-1.5s1.5 0.671 1.5 1.5v0 4.499l4.5 0.001c0.828 0 1.5 0.671 1.5 1.5 0 0.828-0.672 1.5-1.5 1.5v0h-7.5v-7.5zM20 4.5v0h7.5v7.5c0 0.828-0.672 1.5-1.5 1.5s-1.5-0.672-1.5-1.5v0-4.5h-4.5c-0.828 0-1.5-0.672-1.5-1.5s0.672-1.5 1.5-1.5zM20 24.5v-0.001h4.5v-4.499c0-0.829 0.672-1.5 1.5-1.5s1.5 0.671 1.5 1.5v0 7.5h-7.5c-0.828 0-1.5-0.672-1.5-1.5 0-0.829 0.672-1.5 1.5-1.5z"></path>
</symbol>
<symbol id="icon-instagram" viewBox="0 0 32 32">
<path d="M27.962 31.988h-23.981c-2.207 0-3.997-1.79-3.997-3.997v-23.981c0-2.208 1.79-3.997 3.997-3.997h23.981c2.207 0 3.997 1.789 3.997 3.997v23.981c0 2.207-1.79 3.997-3.997 3.997zM15.971 9.804c-2.493 0-4.635 1.476-5.618 3.597h-0.006c-0.010 0.022-0.018 0.046-0.027 0.069-0.059 0.131-0.11 0.266-0.16 0.402-0.024 0.065-0.050 0.129-0.071 0.194-0.046 0.14-0.084 0.281-0.119 0.425-0.018 0.067-0.037 0.132-0.052 0.2-0.032 0.151-0.055 0.305-0.076 0.46-0.009 0.062-0.021 0.124-0.029 0.187-0.022 0.217-0.036 0.438-0.036 0.663 0 3.421 2.774 6.194 6.195 6.194s6.195-2.773 6.195-6.194c0-0.225-0.014-0.446-0.036-0.663-0.008-0.064-0.020-0.125-0.029-0.187-0.021-0.155-0.044-0.309-0.076-0.46-0.015-0.067-0.035-0.132-0.052-0.2-0.035-0.144-0.072-0.285-0.119-0.425-0.021-0.065-0.047-0.129-0.071-0.194-0.050-0.136-0.101-0.271-0.16-0.402-0.010-0.022-0.017-0.046-0.027-0.069h-0.006c-0.983-2.121-3.125-3.597-5.618-3.597zM28.362 5.207c0-0.883-0.716-1.598-1.599-1.598h-3.197c-0.883 0-1.599 0.714-1.599 1.598v3.199c0 0.883 0.716 1.599 1.599 1.599h3.197c0.883 0 1.599-0.716 1.599-1.599v-3.199zM28.362 13.401h-2.948c0.227 0.828 0.35 1.7 0.35 2.599 0 5.408-4.384 9.791-9.792 9.791s-9.792-4.383-9.792-9.791c0-0.899 0.122-1.771 0.35-2.599h-2.948v13.39c0 0.884 0.716 1.6 1.599 1.6h21.583c0.883 0 1.599-0.716 1.599-1.6v-13.39z"></path>
</symbol>
<symbol id="icon-LINE-GRAPH" viewBox="0 0 32 32">
<path d="M30.5 32h-29c-0.828 0-1.5-0.672-1.5-1.5v-29c0-0.828 0.672-1.5 1.5-1.5h29c0.828 0 1.5 0.672 1.5 1.5v29c0 0.828-0.672 1.5-1.5 1.5zM29 3h-26v26h26v-26zM5.215 16.239v-0.002l4-2.498c0.229-0.141 0.497-0.222 0.785-0.222 0.311 0 0.6 0.095 0.84 0.258l0.006-0.009 6.631 4.42 7.638-5.391c0.248-0.182 0.554-0.289 0.885-0.289 0.828 0 1.5 0.671 1.5 1.499 0 0.5-0.245 0.943-0.622 1.216h0.001l-8.501 6c-0.246 0.179-0.55 0.284-0.878 0.284-0.321 0-0.618-0.1-0.861-0.272l-6.657-4.438-3.135 1.96c-0.241 0.165-0.533 0.262-0.847 0.262-0.828 0-1.5-0.671-1.5-1.5 0-0.541 0.286-1.014 0.715-1.278z"></path>
</symbol>
<symbol id="icon-MAGNIFYING-GLASS" viewBox="0 0 32 32">
<path d="M31.096 26.862c0.541 0.543 0.877 1.291 0.877 2.119 0 1.656-1.342 2.996-2.996 2.996-0.828 0-1.576-0.336-2.119-0.877v0l-8.78-8.78c-1.783 1.055-3.856 1.669-6.077 1.669-6.618 0-11.983-5.363-11.983-11.983 0-6.618 5.365-11.983 11.983-11.983s11.983 5.365 11.983 11.983c0 2.222-0.616 4.294-1.669 6.079l8.78 8.778zM12.001 3.018c-4.964 0-8.987 4.023-8.987 8.987s4.023 8.987 8.987 8.987c4.964 0 8.987-4.023 8.987-8.987s-4.023-8.987-8.987-8.987z"></path>
</symbol>
<symbol id="icon-PICTURE" viewBox="0 0 32 32">
<path d="M32 25.599c0 0.694-0.447 1.28-1.067 1.501v1.795c0.62 0.221 1.067 0.807 1.067 1.503 0 0.883-0.717 1.601-1.6 1.601-0.695 0-1.282-0.448-1.502-1.068h-1.796c-0.221 0.62-0.806 1.068-1.502 1.068s-1.282-0.448-1.502-1.068h-1.796c-0.221 0.62-0.806 1.068-1.502 1.068s-1.281-0.448-1.502-1.068h-1.796c-0.221 0.62-0.806 1.068-1.502 1.068s-1.282-0.448-1.502-1.068h-1.796c-0.22 0.62-0.806 1.068-1.502 1.068s-1.282-0.448-1.502-1.068h-1.796c-0.22 0.62-0.806 1.068-1.502 1.068s-1.282-0.448-1.502-1.068h-1.796c-0.221 0.62-0.806 1.068-1.502 1.068-0.883 0-1.6-0.718-1.6-1.601 0-0.695 0.447-1.282 1.067-1.503v-1.795c-0.62-0.221-1.067-0.806-1.067-1.501 0-0.698 0.447-1.282 1.067-1.503v-1.795c-0.62-0.222-1.067-0.807-1.067-1.503 0-0.694 0.447-1.281 1.067-1.502v-1.796c-0.62-0.22-1.067-0.805-1.067-1.501s0.447-1.282 1.067-1.504v-1.795c-0.62-0.22-1.067-0.805-1.067-1.502 0-0.695 0.447-1.282 1.067-1.501v-1.797c-0.62-0.221-1.067-0.806-1.067-1.502s0.447-1.282 1.067-1.502v-1.797c-0.62-0.219-1.067-0.805-1.067-1.501 0-0.884 0.717-1.599 1.6-1.599 0.695 0 1.281 0.445 1.502 1.067h1.796c0.22-0.622 0.806-1.067 1.502-1.067s1.282 0.445 1.502 1.067h1.796c0.22-0.622 0.806-1.067 1.502-1.067s1.282 0.445 1.502 1.067h1.796c0.22-0.622 0.806-1.067 1.502-1.067s1.281 0.445 1.502 1.067h1.796c0.221-0.622 0.806-1.067 1.502-1.067s1.281 0.445 1.502 1.067h1.796c0.22-0.622 0.806-1.067 1.502-1.067s1.281 0.445 1.502 1.067h1.796c0.22-0.622 0.806-1.067 1.502-1.067 0.883 0 1.6 0.715 1.6 1.599 0 0.695-0.447 1.282-1.067 1.501v1.797c0.62 0.22 1.067 0.806 1.067 1.502s-0.447 1.281-1.067 1.502v1.797c0.62 0.219 1.067 0.805 1.067 1.501 0 0.697-0.447 1.282-1.067 1.502v1.795c0.62 0.222 1.067 0.809 1.067 1.504s-0.447 1.281-1.067 1.501v1.796c0.62 0.221 1.067 0.807 1.067 1.502 0 0.695-0.447 1.281-1.067 1.503v1.795c0.62 0.221 1.067 0.805 1.067 1.503zM27.733 4.263h-23.467v23.468h23.467v-23.468zM13.867 21.331l7.467-9.066 4.8 7.467v6.399h-20.267l6.4-6.399 1.6 1.599zM10.667 13.865c-1.767 0-3.2-1.433-3.2-3.201 0-1.767 1.433-3.199 3.2-3.199s3.2 1.431 3.2 3.199c0 1.769-1.433 3.201-3.2 3.201z"></path>
</symbol>
<symbol id="icon-PIN-2" viewBox="0 0 24 32">
<path d="M11.983 31.988c0 0-11.991-13.363-11.991-19.984s5.368-11.991 11.991-11.991c6.622 0 11.991 5.37 11.991 11.991s-11.991 19.984-11.991 19.984zM11.983 4.009c-4.414 0-7.994 3.578-7.994 7.994 0 4.414 3.58 7.994 7.994 7.994s7.994-3.58 7.994-7.994c0-4.415-3.58-7.994-7.994-7.994zM11.983 16c-2.207 0-3.997-1.79-3.997-3.997 0-2.208 1.79-3.997 3.997-3.997s3.997 1.789 3.997 3.997c0 2.207-1.79 3.997-3.997 3.997z"></path>
</symbol>
<symbol id="icon-pinterest" viewBox="0 0 24 32">
<path d="M10.173 20.776c-0.261 1.040-0.525 2.131-0.797 3.198-0.269 1.052-0.506 2.118-0.897 3.085-0.648 1.6-1.471 3.146-2.552 4.398-0.718 0.833-0.566 0.501-0.782 0.456-0.165-0.034-0.179-0.196-0.211-0.431-0.176-1.271-0.056-2.742 0.009-4.171 0.075-1.629 0.417-2.983 0.736-4.335 0.605-2.577 1.182-5.105 1.792-7.699 0.040-0.172 0.15-0.457 0.112-0.556-0.277-0.721-0.457-1.368-0.536-2.123-0.091-0.869-0.021-1.68 0.174-2.428 0.346-1.321 1.14-2.492 2.366-2.92 0.779-0.27 1.642-0.147 2.167 0.165 0.54 0.324 0.911 0.833 1.083 1.556 0.185 0.768 0.049 1.687-0.1 2.362-0.334 1.523-0.772 2.665-1.17 4.134-0.197 0.728-0.421 1.476-0.236 2.263 0.17 0.722 0.546 1.219 1.058 1.593 0.532 0.387 1.162 0.598 2.030 0.568 1.534-0.054 2.599-1.034 3.311-1.958 1.14-1.48 1.83-3.477 2.092-5.853 0.084-0.767 0.146-1.647 0.087-2.516-0.11-1.604-0.611-2.894-1.408-3.893-0.757-0.952-1.831-1.71-3.138-2.137-1.295-0.422-3.088-0.563-4.68-0.291-2.895 0.496-4.936 2.141-6.139 4.413-0.63 1.189-1.045 2.557-1.045 4.259 0 1.313 0.324 2.329 0.847 3.123 0.166 0.251 0.41 0.458 0.572 0.746 0.231 0.407-0.035 1.013-0.149 1.454-0.137 0.531-0.152 1.264-0.772 1.276-0.257 0.005-0.58-0.182-0.797-0.303-1.63-0.901-2.619-2.539-3.025-4.664-0.247-1.292-0.246-2.797 0-4.044 0.237-1.208 0.679-2.321 1.17-3.224 1.017-1.877 2.507-3.379 4.32-4.45 1.394-0.824 2.966-1.403 4.88-1.681 0.634-0.092 1.292-0.131 2.005-0.164 2.083-0.099 3.977 0.373 5.403 1.010 1.505 0.673 2.707 1.569 3.722 2.68 1.047 1.143 1.809 2.472 2.291 4.133 0.252 0.864 0.497 1.789 0.497 2.857 0 1.072-0.226 2.015-0.385 2.958-0.592 3.532-2.272 6.421-4.794 8.066-0.611 0.398-1.35 0.766-2.191 1.010-0.833 0.242-1.784 0.425-2.802 0.353-0.988-0.067-1.797-0.336-2.477-0.721-0.674-0.381-1.242-0.848-1.644-1.554z"></path>
</symbol>
<symbol id="icon-SHOPPING-CART" viewBox="0 0 40 32">
<path d="M39.994 7.070l0.002 0.002-5.645 12.544c-0.278 0.618-0.88 1.058-1.59 1.104v0l-16.257 1.083 0.94 2.684h17.7c2.078 0 3.763 1.685 3.763 3.763 0 2.080-1.685 3.763-3.763 3.763s-3.763-1.683-3.763-3.763h-17.561c0 2.080-1.685 3.763-3.763 3.763s-3.763-1.683-3.763-3.763c0-2.078 1.685-3.763 3.763-3.763h3.4l-7.243-20.697h-4.31c-1.040 0-1.882-0.842-1.882-1.882 0-1.038 0.842-1.882 1.882-1.882h5.645c0.821 0 1.512 0.529 1.77 1.264l0.007-0.002 1.095 3.129h27.861c1.040 0 1.882 0.842 1.882 1.882 0 0.276-0.062 0.536-0.169 0.771zM11.739 8.181l3.478 9.937 16.168-1.076 3.987-8.86h-23.632z"></path>
</symbol>
<symbol id="icon-SPEECH-4" viewBox="0 0 33 32">
<path d="M31.475 18.884h-1.049v2.623c0 0.108-0.011 0.215-0.032 0.317-0.015 0.071-0.040 0.138-0.064 0.206-0.011 0.030-0.016 0.061-0.028 0.089-0.025 0.060-0.060 0.115-0.092 0.172-0.018 0.031-0.032 0.066-0.052 0.097-0.051 0.076-0.111 0.146-0.175 0.211-0.006 0.007-0.011 0.015-0.017 0.021-0.28 0.281-0.667 0.454-1.093 0.46-0.006 0-0.013 0.001-0.019 0.001v0 0c-0.434 0-0.828-0.175-1.113-0.461l-3.736-3.736h-14.561c-0.869 0-1.574-0.705-1.574-1.574v-15.738c0-0.869 0.705-1.574 1.574-1.574h22.033c0.869 0 1.574 0.705 1.574 1.574v15.738c0 0.869-0.705 1.574-1.574 1.574zM23.352 20.458l3.319 3.319 0.004-0.004c0.566 0.544 1.331 0.882 2.178 0.882v1.049c0 0.869-0.705 1.573-1.574 1.573v0h-16.659l-4.261 4.261c-0.285 0.284-0.678 0.461-1.113 0.461v0 0c-0.007 0-0.013-0.002-0.019-0.002-0.427-0.006-0.813-0.179-1.093-0.459-0.007-0.007-0.011-0.015-0.017-0.021-0.064-0.066-0.124-0.136-0.175-0.212-0.020-0.030-0.034-0.064-0.052-0.096-0.033-0.057-0.068-0.111-0.093-0.171-0.012-0.028-0.017-0.060-0.028-0.089-0.024-0.068-0.049-0.134-0.064-0.207-0.021-0.102-0.032-0.208-0.032-0.317v0-3.147h-2.1c-0.868-0.002-1.572-0.705-1.572-1.573v-17.836c0-0.001 0-0.001 0-0.001 0-0.87 0.705-1.574 1.574-1.574h4.721v11.016c0 1.738 1.409 3.148 3.148 3.148h13.91z"></path>
</symbol>
<symbol id="icon-SPEECH-BUBBLE-2" viewBox="0 0 36 32">
<path d="M18.969 27.459c-1.287 0-2.547-0.371-3.764-0.546-4.92 6.223-12.681 4.997-12.681 4.997 5.482-2.594 5.369-6.892 4.395-7.464-4.303-2.529-6.89-6.378-6.89-10.691 0-7.613 8.369-13.786 18.94-13.786 10.572 0 17.015 6.173 17.015 13.786 0 7.617-6.443 13.705-17.015 13.705zM9.595 10.655c-1.859 0-3.368 1.507-3.368 3.368 0 1.859 1.509 3.368 3.368 3.368 1.862 0 3.368-1.509 3.368-3.368 0-1.862-1.507-3.368-3.368-3.368zM18.017 10.655c-1.859 0-3.368 1.507-3.368 3.368 0 1.859 1.509 3.368 3.368 3.368 1.862 0 3.368-1.509 3.368-3.368 0-1.862-1.507-3.368-3.368-3.368zM26.438 10.655c-1.859 0-3.368 1.507-3.368 3.368 0 1.859 1.509 3.368 3.368 3.368 1.862 0 3.368-1.509 3.368-3.368 0-1.862-1.507-3.368-3.368-3.368z"></path>
</symbol>
<symbol id="icon-tumblr" viewBox="0 0 20 32">
<path d="M19.981 30.233c-1.357 0.641-2.589 1.094-3.691 1.353s-2.292 0.389-3.571 0.389c-1.455 0-2.312-0.184-3.43-0.551-1.116-0.369-2.068-0.898-2.857-1.577-0.791-0.685-1.335-1.413-1.643-2.18-0.303-0.771-0.455-1.884-0.455-3.348v-11.207h-4.32v-4.526c1.25-0.407 2.697-0.992 3.585-1.755 0.894-0.763 1.607-1.675 2.146-2.745 0.539-1.066 0.912-2.421 1.114-4.072h4.522v7.394h7.35v5.703h-7.35v8.195c0 1.855-0.024 2.923 0.172 3.448 0.194 0.523 0.681 1.066 1.212 1.379 0.705 0.423 1.507 0.637 2.413 0.637 1.609 0 3.21-0.527 4.803-1.579v5.041z"></path>
</symbol>
<symbol id="icon-twitter" viewBox="0 0 39 32">
<path d="M26.811 0.017c3.131-0.055 4.798 1.085 6.389 2.537 1.351-0.117 3.108-0.871 4.142-1.398 0.334-0.182 0.67-0.366 1.005-0.549-0.591 1.596-1.391 2.846-2.623 3.796-0.274 0.209-0.545 0.494-0.888 0.628 0 0.006 0 0.014 0 0.020 1.755-0.017 3.202-0.81 4.576-1.239 0 0.006 0 0.014 0 0.020-0.722 1.147-1.699 2.312-2.741 3.146-0.42 0.334-0.842 0.668-1.262 1.002 0.023 1.858-0.028 3.631-0.374 5.192-2.019 9.074-7.37 15.235-15.837 17.873-3.041 0.947-7.955 1.336-11.439 0.471-1.727-0.428-3.288-0.913-4.752-1.552-0.814-0.357-1.568-0.742-2.289-1.181-0.237-0.145-0.473-0.289-0.71-0.433 0.785 0.023 1.705 0.24 2.583 0.099 0.796-0.129 1.575-0.095 2.309-0.256 1.829-0.402 3.452-0.933 4.85-1.75 0.679-0.399 1.709-0.863 2.19-1.436-0.908 0.017-1.732-0.195-2.406-0.433-2.615-0.924-4.137-2.621-5.129-5.172 0.793 0.088 3.075 0.294 3.609-0.157-0.997-0.055-1.956-0.633-2.643-1.061-2.104-1.318-3.819-3.525-3.806-6.922 0.277 0.131 0.553 0.262 0.828 0.393 0.53 0.223 1.067 0.342 1.696 0.473 0.266 0.055 0.799 0.211 1.105 0.097-0.014 0-0.026 0-0.040 0-0.406-0.473-1.070-0.788-1.479-1.298-1.35-1.676-2.614-4.257-1.815-7.333 0.203-0.78 0.525-1.468 0.868-2.104 0.014 0.006 0.026 0.012 0.040 0.018 0.157 0.329 0.508 0.571 0.73 0.847 0.69 0.854 1.539 1.622 2.406 2.3 2.952 2.31 5.61 3.728 9.88 4.778 1.084 0.268 2.335 0.471 3.629 0.473-0.363-1.057-0.246-2.771 0.038-3.794 0.72-2.577 2.283-4.431 4.576-5.426 0.548-0.239 1.156-0.412 1.795-0.553 0.329-0.038 0.657-0.079 0.987-0.117z"></path>
</symbol>
<symbol id="icon-VIEW" viewBox="0 0 55 32">
<path d="M55.265 16.060c-0.003 0.023-0.003 0.048-0.006 0.068 0 0.011-0.003 0.026-0.003 0.037 0 0.017-0.006 0.034-0.006 0.048-0.003 0.020-0.006 0.040-0.009 0.060 0 0.003 0 0.006 0 0.006-0.068 0.441-0.27 0.848-0.577 1.166-0.58 0.703-1.215 1.363-1.852 2.011-3.447 3.499-7.401 6.619-11.728 8.88-2.768 1.448-5.723 2.614-8.789 3.174-3.371 0.617-6.744 0.586-10.098-0.142-5.803-1.263-11.056-4.395-15.653-8.144-2.133-1.738-4.233-3.641-5.996-5.78-0.774-0.936-0.774-2.045 0-2.981 0.577-0.703 1.212-1.365 1.852-2.014 3.445-3.496 7.398-6.616 11.728-8.88 2.765-1.445 5.72-2.614 8.786-3.174 3.371-0.614 6.744-0.586 10.098 0.145 5.803 1.26 11.056 4.395 15.653 8.141 2.133 1.738 4.233 3.644 5.996 5.783 0.307 0.316 0.509 0.725 0.577 1.163 0 0.003 0 0.006 0.003 0.009 0.003 0.017 0.006 0.040 0.006 0.057 0.003 0.017 0.006 0.034 0.009 0.051 0 0.011 0 0.023 0.003 0.034 0 0.023 0.003 0.048 0.003 0.071 0.003 0.034 0.006 0.068 0.006 0.105 0 0.034-0.003 0.071-0.003 0.105zM27.617 5.154c-5.726 0-10.368 4.642-10.368 10.368s4.642 10.368 10.368 10.368c5.726 0 10.371-4.642 10.371-10.368s-4.645-10.368-10.371-10.368zM27.617 20.705c-2.861 0-5.183-2.318-5.183-5.183s2.321-5.185 5.183-5.185c2.864 0 5.185 2.321 5.185 5.185s-2.321 5.183-5.185 5.183z"></path>
</symbol>
<symbol id="icon-youtube" viewBox="0 0 47 32">
<path d="M39.38-0.020h-30.993c-3.951 0-8.387 2.636-8.387 6.505v19.252c0 3.866 4.436 6.225 8.387 6.225h30.993c3.953 0 7.153-2.359 7.153-6.225v-19.252c0-3.869-3.2-6.505-7.153-6.505zM20.259 23.377l-0.093-14.662 10.205 7.395-10.112 7.267z"></path>
<symbol id="icon-USERS" viewBox="0 0 45 32">
<path d="M45.38 30.584c0 0.001 0 0.003 0 0.003 0 0.78-0.633 1.409-1.413 1.409h-10.527c0.79-0.175 1.381-0.872 1.381-1.712 0-0.001-0.001-0.001-0.001-0.003h0.001c0 0 0-6.397-4.689-8.724-2.006-0.994-2.138-0.804-3.133-1.040l0.028-2.77c0 0-1.095-0.835-1.436-3.453-0.685 0.199-0.91-0.801-0.952-1.437-0.037-0.612-0.396-2.532 0.44-2.359-0.172-1.281-0.294-2.436-0.234-3.049 0.21-2.148 2.287-4.393 5.484-4.555 3.762 0.162 5.252 2.406 5.461 4.554 0.061 0.614-0.072 1.77-0.244 3.048 0.837-0.17 0.473 1.744 0.432 2.359-0.035 0.636-0.267 1.632-0.95 1.433-0.342 2.618-1.437 3.446-1.437 3.446l0.026 2.767c0 0 0.693 0.395 3.616 1.601 2.923 1.209 2.005 0.304 4.386 1.484 3.762 1.866 3.762 6.998 3.762 6.998v0zM24.178 21.12c3.213 1.328 2.204 0.334 4.822 1.633 4.136 2.050 4.136 7.691 4.136 7.691h-0.001c0 0 0 0.001 0 0.004 0 0.855-0.695 1.547-1.552 1.547h-30.030c-0.858 0-1.552-0.692-1.552-1.547 0-0.003 0-0.004 0-0.004h-0.001c0 0 0-5.642 4.136-7.694 2.618-1.297 1.609-0.243 4.822-1.571 3.213-1.325 3.974-1.79 3.974-1.79l0.030-3.057c0 0-1.203-0.918-1.577-3.792-0.753 0.217-1.001-0.882-1.045-1.581-0.041-0.675-0.436-2.784 0.482-2.592-0.187-1.409-0.322-2.679-0.256-3.351 0.23-2.363 2.513-4.829 6.028-5.011 4.135 0.179 5.774 2.646 6.002 5.007 0.067 0.675-0.080 1.944-0.268 3.351 0.919-0.187 0.52 1.917 0.474 2.592-0.040 0.7-0.294 1.794-1.045 1.577-0.375 2.878-1.578 3.787-1.578 3.787l0.027 3.042c0 0 0.761 0.432 3.974 1.758z"></path>
</symbol>
</symbol>
</defs>
</svg>
